<svg width="512" height="512" viewBox="0 0 680 680" xmlns="http://www.w3.org/2000/svg">
  <defs>
    <clipPath id="rc2">
      <rect width="680" height="680" rx="140"/>
    </clipPath>
  </defs>
  <rect width="680" height="680" fill="#0a0a0a" rx="140"/>
  <g clip-path="url(#rc2)" opacity="0.15">
    <line x1="340" y1="340" x2="340" y2="0" stroke="#EFC94C" stroke-width="40"/>
    <line x1="340" y1="340" x2="680" y2="0" stroke="#EFC94C" stroke-width="40"/>
    <line x1="340" y1="340" x2="680" y2="340" stroke="#EFC94C" stroke-width="40"/>
    <line x1="340" y1="340" x2="680" y2="680" stroke="#EFC94C" stroke-width="40"/>
    <line x1="340" y1="340" x2="340" y2="680" stroke="#EFC94C" stroke-width="40"/>
    <line x1="340" y1="340" x2="0" y2="680" stroke="#EFC94C" stroke-width="40"/>
    <line x1="340" y1="340" x2="0" y2="340" stroke="#EFC94C" stroke-width="40"/>
    <line x1="340" y1="340" x2="0" y2="0" stroke="#EFC94C" stroke-width="40"/>
  </g>
  <path d="M 100 480 A 240 240 0 0 1 580 480 Z" fill="#D04A2F" opacity="0.9"/>
  <path d="M 120 480 A 220 220 0 0 1 560 480 Z" fill="#0a0a0a"/>
  <rect x="0" y="580" width="680" height="33" fill="#1B5E35" clip-path="url(#rc2)"/>
  <rect x="0" y="613" width="680" height="33" fill="#D04A2F" clip-path="url(#rc2)"/>
  <rect x="0" y="646" width="680" height="34" fill="#EFC94C" clip-path="url(#rc2)"/>
  <rect x="310" y="370" width="60" height="100" rx="12" fill="#EFC94C"/>
  <rect x="295" y="290" width="90" height="90" rx="14" fill="#EFC94C"/>
  <rect x="350" y="235" width="28" height="65" rx="12" fill="#EFC94C"/>
  <rect x="318" y="225" width="28" height="72" rx="12" fill="#EFC94C"/>
  <rect x="286" y="238" width="28" height="62" rx="12" fill="#EFC94C"/>
  <rect x="256" y="252" width="26" height="55" rx="11" fill="#EFC94C"/>
  <rect x="375" y="305" width="30" height="45" rx="12" fill="#EFC94C" transform="rotate(-20 375 305)"/>
  <g transform="translate(340, 185)">
    <polygon points="0,-32 7,-11 28,-11 12,4 18,25 0,13 -18,25 -12,4 -28,-11 -7,-11" fill="#D04A2F"/>
  </g>
  <text x="340" y="558" text-anchor="middle" font-family="Georgia, serif" font-size="52" font-weight="700" fill="#EFC94C" letter-spacing="18">FASO</text>
  <text x="340" y="577" text-anchor="middle" font-family="Arial, sans-serif" font-size="13" fill="#D04A2F" letter-spacing="6">LE PEUPLE D'ABORD</text>
</svg>